<svg xmlns="http://www.w3.org/2000/svg" xmlns:xlink="http://www.w3.org/1999/xlink"><symbol viewBox="0 0 72 64" id="bubbles" xmlns="http://www.w3.org/2000/svg"><path d="M68 56.323a7.296 7.296 0 004 6.511v.996c-.664.091-1.342.139-2.031.139a14.83 14.83 0 01-10.795-4.642 20.112 20.112 0 01-5.174.672c-9.941 0-18-7.163-18-16s8.059-16 18-16 18 7.163 18 16c0 3.459-1.235 6.662-3.335 9.279A7.25 7.25 0 0068 56.322zM32 0c17.404 0 31.562 11.288 31.99 25.345-3.074-1.37-6.474-2.095-9.99-2.095-5.972 0-11.614 2.09-15.884 5.886C33.688 33.072 31.25 38.351 31.25 44c0 2.792.596 5.493 1.733 7.987a39.503 39.503 0 01-5.972-.302C20.137 58.559 11.933 59.791 4 59.972V58.29c4.284-2.099 8-5.921 8-10.29 0-.61-.047-1.208-.135-1.794C4.628 41.439 0 34.159 0 26 0 11.641 14.327 0 32 0z"/></symbol><symbol viewBox="0 0 64 64" id="cog" xmlns="http://www.w3.org/2000/svg"><path d="M58.362 38.141c-3.358-5.816-1.339-13.269 4.51-16.655l-6.289-10.893a12.056 12.056 0 01-6.115 1.657c-6.721 0-12.169-5.484-12.169-12.249H25.72a12.055 12.055 0 01-1.622 6.141c-3.358 5.816-10.822 7.794-16.679 4.422L1.13 21.457a12.053 12.053 0 014.493 4.467c3.352 5.807 1.345 13.245-4.482 16.639L7.43 53.456a12.048 12.048 0 016.088-1.641c6.7 0 12.134 5.45 12.169 12.185h12.578a12.055 12.055 0 011.623-6.076c3.352-5.807 10.798-7.787 16.651-4.438l6.289-10.893a12.051 12.051 0 01-4.465-4.452zM32 44.958c-7.157 0-12.959-5.801-12.959-12.958S24.843 19.042 32 19.042 44.958 24.844 44.958 32 39.157 44.958 32 44.958z"/></symbol><symbol viewBox="0 0 64 64" id="glasses--martini" xmlns="http://www.w3.org/2000/svg"><path d="M55.573 11.236A2 2 0 0054 8H10a2 2 0 00-1.573 3.236L28 36.147v23.854h-6a2 2 0 100 4h20a2 2 0 100-4h-6V36.147l19.573-24.911zM49.885 12l-6.286 8H20.4l-6.286-8h35.77z"/></symbol><symbol viewBox="0 0 64 64" id="glasses--wine" xmlns="http://www.w3.org/2000/svg"><path d="M48.611 1.054A2 2 0 0046.849 0H17.15c-.736 0-1.413.405-1.762 1.054-2.217 4.126-3.389 8.949-3.389 13.947 0 6.588 2.023 12.802 5.697 17.496 2.839 3.628 6.405 6.034 10.303 7.011v20.493h-6a2 2 0 100 4h20a2 2 0 100-4h-6V39.508c3.898-.977 7.464-3.383 10.303-7.011 3.674-4.694 5.697-10.908 5.697-17.496 0-4.997-1.172-9.82-3.389-13.947zM18.381 4h27.238C47.18 7.306 48 11.084 48 15c0 .335-.007.668-.019 1H16.018A27.669 27.669 0 0116 15c0-3.916.82-7.694 2.381-11z"/></symbol><symbol viewBox="0 0 32 32" id="icon-bell" xmlns="http://www.w3.org/2000/svg"><path d="M24 18v-8c0-5.5-4.5-10-10-10S4 4.5 4 10v8l-4 8h9.1c.5 2.3 2.5 4 4.9 4s4.4-1.7 4.9-4H28l-4-8zM14 28c-1.3 0-2.4-.8-2.8-2h5.6c-.4 1.2-1.5 2-2.8 2zM3 24l3-6v-8c0-4.4 3.6-8 8-8s8 3.6 8 8v8l3 6H3z" fill="#fff"/></symbol><symbol viewBox="0 0 32 32" id="icon-dashboard" xmlns="http://www.w3.org/2000/svg"><path d="M25 18c1.7 0 3-1.3 3-3s-1.3-3-3-3-3 1.3-3 3 1.3 3 3 3zm-1-4h2v2h-2v-2zm1 12c1.7 0 3-1.3 3-3s-1.3-3-3-3-3 1.3-3 3 1.3 3 3 3zm-1-4h2v2h-2v-2zm-7 4c1.7 0 3-1.3 3-3s-1.3-3-3-3-3 1.3-3 3 1.3 3 3 3zm-1-4h2v2h-2v-2zM28 0H6C3.8 0 2 1.8 2 4v24c0 2.2 1.8 4 4 4h22c2.2 0 4-1.8 4-4V4c0-2.2-1.8-4-4-4zm2 28c0 1.1-.9 2-2 2H6c-1.1 0-2-.9-2-2V8h26v20zm0-22H4V4c0-1.1.9-2 2-2h22c1.1 0 2 .9 2 2v2zM17 18c1.7 0 3-1.3 3-3s-1.3-3-3-3-3 1.3-3 3 1.3 3 3 3zm-1-4h2v2h-2v-2zM9 26c1.7 0 3-1.3 3-3s-1.3-3-3-3-3 1.3-3 3 1.3 3 3 3zm-1-4h2v2H8v-2zm1-4c1.7 0 3-1.3 3-3s-1.3-3-3-3-3 1.3-3 3 1.3 3 3 3zm-1-4h2v2H8v-2z" fill="#fff"/></symbol><symbol viewBox="0 0 56.693 56.693" id="icon-facebook" xmlns="http://www.w3.org/2000/svg"><path fill="green" d="M40.43 21.739h-7.645v-5.014c0-1.883 1.248-2.322 2.127-2.322h5.395V6.125l-7.43-.029c-8.248 0-10.125 6.174-10.125 10.125v5.518h-4.77v8.53h4.77v24.137h10.033V30.269h6.77l.875-8.53z"/></symbol><symbol viewBox="0 0 32 32" id="icon-google-plus" xmlns="http://www.w3.org/2000/svg"><path fill="#00f" d="M17.7 25.7c0-.3 0-.5-.1-.8-.1-.2-.1-.5-.2-.7-.1-.2-.2-.4-.3-.7-.2-.2-.3-.4-.4-.6-.1-.2-.3-.3-.5-.6l-.5-.5c-.1-.1-.3-.3-.6-.5s-.5-.4-.6-.4-.3-.2-.6-.4-.5-.4-.6-.4h-1c-.7 0-1.4 0-2 .1-.7.1-1.4.2-2.1.5-.7.2-1.3.5-1.9.9s-1 .8-1.3 1.4c-.3.6-.5 1.3-.5 2.1 0 .9.2 1.7.7 2.3.5.7 1.1 1.2 1.8 1.6s1.5.7 2.3.9 1.6.3 2.4.3c.8 0 1.5-.1 2.2-.2.7-.2 1.3-.4 1.9-.8.6-.3 1.1-.8 1.4-1.4.3-.6.5-1.3.5-2.1zM15.4 9.1c0-.8-.1-1.6-.3-2.5-.2-.9-.5-1.7-.9-2.5s-.9-1.5-1.6-2c-.7-.5-1.5-.8-2.3-.8-1.2 0-2.1.4-2.8 1.3-.7.9-1 1.9-1 3.2 0 .6.1 1.2.2 1.9s.4 1.3.7 2c.3.7.7 1.3 1.1 1.8.4.5.9 1 1.5 1.3.6.3 1.2.5 1.9.5 1.2 0 2.1-.4 2.7-1.2.5-.7.8-1.7.8-3zM12.9 0h8.4l-2.6 1.5h-2.6c.9.6 1.6 1.4 2.1 2.4S19 6 19 7.1c0 .9-.1 1.8-.4 2.5-.3.7-.7 1.3-1.1 1.8-.4.4-.8.9-1.3 1.2-.4.4-.8.8-1.1 1.2-.3.4-.4.8-.4 1.3 0 .3.1.7.3 1 .2.3.5.6.8.9.3.3.7.6 1.1.9.4.3.8.7 1.2 1.1.4.4.8.8 1.1 1.3.3.5.6 1 .8 1.6.2.6.3 1.3.3 2 0 2.1-.9 3.9-2.7 5.4-1.9 1.7-4.6 2.5-8.1 2.5-.8 0-1.5-.1-2.3-.2-.8-.1-1.6-.3-2.3-.6-.8-.3-1.5-.7-2.1-1.1-.6-.4-1.1-1-1.5-1.7C1 27.6.8 26.9.8 26c0-.8.2-1.6.7-2.6.4-.8 1-1.5 1.8-2.1.8-.6 1.8-1.1 2.8-1.4 1-.3 2-.5 3-.7.9-.1 1.9-.2 2.9-.3-.8-1.1-1.2-2-1.2-2.9v-.5c0-.1.1-.3.1-.4 0-.1.1-.2.2-.4s.1-.3.1-.4c-.5.1-1 .1-1.3.1-1.9 0-3.5-.6-4.9-1.9-1.4-1.3-2-2.8-2-4.7C3 6 3.6 4.4 4.8 3 6 1.7 7.5.8 9.3.4c1.2-.3 2.4-.4 3.6-.4zm19.9 4.9v2.5h-4.9v4.9h-2.5V7.4h-4.9V4.9h4.9V0h2.5v4.9h4.9z"/></symbol><symbol viewBox="0 0 32 32" id="icon-members" xmlns="http://www.w3.org/2000/svg"><path d="M18 16.4c1.3-1.7 2-3.9 2-6.4 0-5.5-4-10-9-10S2 4.5 2 10c0 2.4.8 4.6 2 6.4-2.3.8-4 3-4 5.6v4c0 3.3 2.7 6 6 6h10c3.3 0 6-2.7 6-6v-4c0-2.6-1.7-4.8-4-5.6zM4 10c0-4.4 3.1-8 7-8s7 3.6 7 8-3.1 8-7 8-7-3.6-7-8zm16 15.5c0 2.5-2.2 4.5-4.9 4.5H6.9C4.2 30 2 28 2 25.5v-3c0-2.1 1.6-3.9 3.8-4.4C7.2 19.3 9 20 11 20s3.8-.7 5.2-1.9c2.2.5 3.8 2.2 3.8 4.4v3zM23 8h8c.6 0 1-.4 1-1s-.4-1-1-1h-8c-.6 0-1 .4-1 1s.4 1 1 1zm8 16h-6c-.6 0-1 .4-1 1s.4 1 1 1h6c.6 0 1-.4 1-1s-.4-1-1-1zm0-12h-8c-.6 0-1 .4-1 1s.4 1 1 1h8c.6 0 1-.4 1-1s-.4-1-1-1zm0 6h-6c-.6 0-1 .4-1 1s.4 1 1 1h6c.6 0 1-.4 1-1s-.4-1-1-1z" fill="#fff"/></symbol><symbol viewBox="0 0 32 32" id="icon-settings" xmlns="http://www.w3.org/2000/svg"><path d="M26 24H14.9c-.4-1.7-2-3-3.9-3s-3.4 1.3-3.9 3H6c-.6 0-1 .4-1 1s.4 1 1 1h1.1c.4 1.7 2 3 3.9 3s3.4-1.3 3.9-3H26c.6 0 1-.4 1-1s-.4-1-1-1zm-15 3.4c-1.3 0-2.4-1.1-2.4-2.4 0-1.3 1.1-2.4 2.4-2.4 1.3 0 2.4 1.1 2.4 2.4 0 1.3-1.1 2.4-2.4 2.4zM26 8H14.9c-.4-1.7-2-3-3.9-3S7.6 6.3 7.1 8H6c-.6 0-1 .4-1 1s.4 1 1 1h1.1c.4 1.7 2 3 3.9 3s3.4-1.3 3.9-3H26c.6 0 1-.4 1-1s-.4-1-1-1zm-15 3.4c-1.3 0-2.4-1.1-2.4-2.4 0-1.3 1.1-2.4 2.4-2.4 1.3 0 2.4 1.1 2.4 2.4 0 1.3-1.1 2.4-2.4 2.4zM26 16h-2.1c-.4-1.7-2-3-3.9-3s-3.4 1.3-3.9 3H6c-.6 0-1 .4-1 1s.4 1 1 1h10.1c.4 1.7 2 3 3.9 3s3.4-1.3 3.9-3H26c.6 0 1-.4 1-1s-.4-1-1-1zm-6 3.4c-1.3 0-2.4-1.1-2.4-2.4 0-1.3 1.1-2.4 2.4-2.4 1.3 0 2.4 1.1 2.4 2.4 0 1.3-1.1 2.4-2.4 2.4zM28 0H4C1.8 0 0 1.8 0 4v24c0 2.2 1.8 4 4 4h24c2.2 0 4-1.8 4-4V4c0-2.2-1.8-4-4-4zm2 28c0 1.1-.9 2-2 2H4c-1.1 0-2-.9-2-2V4c0-1.1.9-2 2-2h24c1.1 0 2 .9 2 2v24z" fill="#fff"/></symbol><symbol viewBox="0 0 32 32" id="icon-twitter" xmlns="http://www.w3.org/2000/svg"><path fill="red" d="M32 3.1c-1.2.5-2.4.9-3.8 1 1.4-.8 2.4-2.1 2.9-3.6-1.3.8-2.7 1.3-4.2 1.6C25.8.8 24 0 22.2 0c-3.6 0-6.6 2.9-6.6 6.6 0 .5.1 1 .2 1.5-5.5-.3-10.3-2.9-13.6-6.9-.6 1-.9 2.1-.9 3.3 0 2.3 1.2 4.3 2.9 5.5-1.1 0-2.1-.3-3-.8v.1c0 3.2 2.3 5.8 5.3 6.4-.6.1-1.1.2-1.7.2-.4 0-.8 0-1.2-.1.8 2.6 3.3 4.5 6.1 4.6-2.2 1.8-5.1 2.8-8.2 2.8-.5 0-1.1 0-1.6-.1 2.9 1.9 6.4 3 10.1 3 12.1 0 18.7-10 18.7-18.7v-.8c1.3-1 2.4-2.2 3.3-3.5z"/></symbol><symbol viewBox="0 0 32 32" id="icon-visits" xmlns="http://www.w3.org/2000/svg"><path d="M14 0h-2c-1.1 0-2 .9-2 2v28c0 1.1.9 2 2 2h2c1.1 0 2-.9 2-2V2c0-1.1-.9-2-2-2zm0 29c0 .6-.4 1-1 1s-1-.4-1-1V3c0-.6.4-1 1-1s1 .4 1 1v26zM4 9H2c-1.1 0-2 .9-2 2v19c0 1.1.9 2 2 2h2c1.1 0 2-.9 2-2V11c0-1.1-.9-2-2-2zm0 20c0 .6-.4 1-1 1s-1-.4-1-1V12c0-.6.4-1 1-1s1 .4 1 1v17zm20-13h-2c-1.1 0-2 .9-2 2v12c0 1.1.9 2 2 2h2c1.1 0 2-.9 2-2V18c0-1.1-.9-2-2-2zm0 13c0 .6-.4 1-1 1s-1-.4-1-1V19c0-.6.4-1 1-1s1 .4 1 1v10z" fill="#fff"/></symbol></svg>